<mxfile host="app.diagrams.net" agent="Mozilla/5.0 (Windows NT 10.0; Win64; x64) AppleWebKit/537.36 (KHTML, like Gecko) Chrome/138.0.0.0 Safari/537.36" version="28.0.6">
  <diagram name="PÃ¡gina-1" id="Kd77JW-Z16NpSUiQV5Jw">
    <mxGraphModel grid="1" page="1" gridSize="10" guides="1" tooltips="1" connect="1" arrows="1" fold="1" pageScale="1" pageWidth="827" pageHeight="1169" math="0" shadow="0">
      <root>
        <mxCell id="0" />
        <mxCell id="1" parent="0" />
        <mxCell id="jTYy7DQ-jheGO0qsx20p-1" value="" style="html=1;verticalAlign=bottom;startArrow=oval;startFill=1;endArrow=block;startSize=8;curved=0;rounded=0;" edge="1" parent="1">
          <mxGeometry width="60" relative="1" as="geometry">
            <mxPoint x="570" y="130" as="sourcePoint" />
            <mxPoint x="570" y="210" as="targetPoint" />
          </mxGeometry>
        </mxCell>
        <mxCell id="jTYy7DQ-jheGO0qsx20p-2" style="edgeStyle=orthogonalEdgeStyle;rounded=0;orthogonalLoop=1;jettySize=auto;html=1;" edge="1" parent="1" source="jTYy7DQ-jheGO0qsx20p-3" target="jTYy7DQ-jheGO0qsx20p-6">
          <mxGeometry relative="1" as="geometry" />
        </mxCell>
        <mxCell id="jTYy7DQ-jheGO0qsx20p-3" value="Ref" style="shape=umlFrame;whiteSpace=wrap;html=1;pointerEvents=0;" vertex="1" parent="1">
          <mxGeometry x="460" y="210" width="250" height="90" as="geometry" />
        </mxCell>
        <mxCell id="jTYy7DQ-jheGO0qsx20p-4" value="Buacar cuentes" style="text;html=1;align=center;verticalAlign=middle;resizable=0;points=[];autosize=1;strokeColor=none;fillColor=none;" vertex="1" parent="1">
          <mxGeometry x="515" y="248" width="110" height="30" as="geometry" />
        </mxCell>
        <mxCell id="jTYy7DQ-jheGO0qsx20p-5" style="edgeStyle=orthogonalEdgeStyle;rounded=0;orthogonalLoop=1;jettySize=auto;html=1;" edge="1" parent="1" source="jTYy7DQ-jheGO0qsx20p-6" target="jTYy7DQ-jheGO0qsx20p-9">
          <mxGeometry relative="1" as="geometry" />
        </mxCell>
        <mxCell id="jTYy7DQ-jheGO0qsx20p-6" value="Ref" style="shape=umlFrame;whiteSpace=wrap;html=1;pointerEvents=0;" vertex="1" parent="1">
          <mxGeometry x="460" y="390" width="250" height="90" as="geometry" />
        </mxCell>
        <mxCell id="jTYy7DQ-jheGO0qsx20p-7" value="Visualisar cuenta cliente" style="text;html=1;align=center;verticalAlign=middle;resizable=0;points=[];autosize=1;strokeColor=none;fillColor=none;" vertex="1" parent="1">
          <mxGeometry x="495" y="428" width="150" height="30" as="geometry" />
        </mxCell>
        <mxCell id="jTYy7DQ-jheGO0qsx20p-8" style="edgeStyle=orthogonalEdgeStyle;rounded=0;orthogonalLoop=1;jettySize=auto;html=1;" edge="1" parent="1" source="jTYy7DQ-jheGO0qsx20p-9" target="jTYy7DQ-jheGO0qsx20p-14">
          <mxGeometry relative="1" as="geometry" />
        </mxCell>
        <mxCell id="jTYy7DQ-jheGO0qsx20p-9" value="" style="rhombus;whiteSpace=wrap;html=1;" vertex="1" parent="1">
          <mxGeometry x="553.5" y="560" width="63" height="50" as="geometry" />
        </mxCell>
        <mxCell id="jTYy7DQ-jheGO0qsx20p-10" style="edgeStyle=orthogonalEdgeStyle;rounded=0;orthogonalLoop=1;jettySize=auto;html=1;" edge="1" parent="1" source="jTYy7DQ-jheGO0qsx20p-11" target="jTYy7DQ-jheGO0qsx20p-19">
          <mxGeometry relative="1" as="geometry" />
        </mxCell>
        <mxCell id="jTYy7DQ-jheGO0qsx20p-11" value="Sd Suspencion" style="shape=umlFrame;whiteSpace=wrap;html=1;pointerEvents=0;" vertex="1" parent="1">
          <mxGeometry x="80" y="650" width="430" height="320" as="geometry" />
        </mxCell>
        <mxCell id="jTYy7DQ-jheGO0qsx20p-12" value="suspender cuenta" style="text;html=1;align=center;verticalAlign=middle;resizable=0;points=[];autosize=1;strokeColor=none;fillColor=none;" vertex="1" parent="1">
          <mxGeometry x="210" y="790" width="120" height="30" as="geometry" />
        </mxCell>
        <mxCell id="jTYy7DQ-jheGO0qsx20p-13" style="edgeStyle=orthogonalEdgeStyle;rounded=0;orthogonalLoop=1;jettySize=auto;html=1;entryX=0.5;entryY=0;entryDx=0;entryDy=0;" edge="1" parent="1" source="jTYy7DQ-jheGO0qsx20p-14" target="jTYy7DQ-jheGO0qsx20p-19">
          <mxGeometry relative="1" as="geometry" />
        </mxCell>
        <mxCell id="jTYy7DQ-jheGO0qsx20p-14" value="Sd cuenta" style="shape=umlFrame;whiteSpace=wrap;html=1;pointerEvents=0;" vertex="1" parent="1">
          <mxGeometry x="660" y="650" width="420" height="320" as="geometry" />
        </mxCell>
        <mxCell id="jTYy7DQ-jheGO0qsx20p-15" value="restaurar cuenta" style="text;html=1;align=center;verticalAlign=middle;resizable=0;points=[];autosize=1;strokeColor=none;fillColor=none;" vertex="1" parent="1">
          <mxGeometry x="830" y="770" width="110" height="30" as="geometry" />
        </mxCell>
        <mxCell id="jTYy7DQ-jheGO0qsx20p-16" value="Ref" style="shape=umlFrame;whiteSpace=wrap;html=1;pointerEvents=0;" vertex="1" parent="1">
          <mxGeometry x="452" y="1220" width="250" height="90" as="geometry" />
        </mxCell>
        <mxCell id="jTYy7DQ-jheGO0qsx20p-17" value="modificar datos&amp;nbsp;" style="text;html=1;align=center;verticalAlign=middle;resizable=0;points=[];autosize=1;strokeColor=none;fillColor=none;" vertex="1" parent="1">
          <mxGeometry x="520" y="1250" width="110" height="30" as="geometry" />
        </mxCell>
        <mxCell id="jTYy7DQ-jheGO0qsx20p-18" style="edgeStyle=orthogonalEdgeStyle;rounded=0;orthogonalLoop=1;jettySize=auto;html=1;entryX=0.447;entryY=0.013;entryDx=0;entryDy=0;entryPerimeter=0;" edge="1" parent="1" source="jTYy7DQ-jheGO0qsx20p-9" target="jTYy7DQ-jheGO0qsx20p-11">
          <mxGeometry relative="1" as="geometry" />
        </mxCell>
        <mxCell id="jTYy7DQ-jheGO0qsx20p-19" value="" style="rounded=0;whiteSpace=wrap;html=1;" vertex="1" parent="1">
          <mxGeometry x="512" y="1100" width="120" height="20" as="geometry" />
        </mxCell>
        <mxCell id="jTYy7DQ-jheGO0qsx20p-20" style="edgeStyle=orthogonalEdgeStyle;rounded=0;orthogonalLoop=1;jettySize=auto;html=1;entryX=0.479;entryY=0.042;entryDx=0;entryDy=0;entryPerimeter=0;" edge="1" parent="1" source="jTYy7DQ-jheGO0qsx20p-19" target="jTYy7DQ-jheGO0qsx20p-16">
          <mxGeometry relative="1" as="geometry" />
        </mxCell>
        <mxCell id="jTYy7DQ-jheGO0qsx20p-25" style="edgeStyle=orthogonalEdgeStyle;rounded=0;orthogonalLoop=1;jettySize=auto;html=1;" edge="1" parent="1" source="jTYy7DQ-jheGO0qsx20p-21" target="jTYy7DQ-jheGO0qsx20p-24">
          <mxGeometry relative="1" as="geometry" />
        </mxCell>
        <mxCell id="jTYy7DQ-jheGO0qsx20p-21" value="Ref" style="shape=umlFrame;whiteSpace=wrap;html=1;pointerEvents=0;" vertex="1" parent="1">
          <mxGeometry x="450" y="1440" width="250" height="90" as="geometry" />
        </mxCell>
        <mxCell id="jTYy7DQ-jheGO0qsx20p-22" value="Eliminar cuenta" style="text;html=1;align=center;verticalAlign=middle;resizable=0;points=[];autosize=1;strokeColor=none;fillColor=none;" vertex="1" parent="1">
          <mxGeometry x="518" y="1470" width="110" height="30" as="geometry" />
        </mxCell>
        <mxCell id="jTYy7DQ-jheGO0qsx20p-23" style="edgeStyle=orthogonalEdgeStyle;rounded=0;orthogonalLoop=1;jettySize=auto;html=1;entryX=0.51;entryY=0.007;entryDx=0;entryDy=0;entryPerimeter=0;" edge="1" parent="1" source="jTYy7DQ-jheGO0qsx20p-16" target="jTYy7DQ-jheGO0qsx20p-21">
          <mxGeometry relative="1" as="geometry" />
        </mxCell>
        <mxCell id="jTYy7DQ-jheGO0qsx20p-24" value="" style="ellipse;html=1;shape=endState;fillColor=#000000;strokeColor=#ff0000;" vertex="1" parent="1">
          <mxGeometry x="560" y="1660" width="30" height="30" as="geometry" />
        </mxCell>
        <mxCell id="dSay3HH1dR3Yj2FRwbyu-2" value="usuario" style="shape=umlLifeline;perimeter=lifelinePerimeter;whiteSpace=wrap;html=1;container=1;dropTarget=0;collapsible=0;recursiveResize=0;outlineConnect=0;portConstraint=eastwest;newEdgeStyle={&quot;curved&quot;:0,&quot;rounded&quot;:0};size=40;" vertex="1" parent="1">
          <mxGeometry x="110" y="710" width="70" height="192" as="geometry" />
        </mxCell>
        <mxCell id="dSay3HH1dR3Yj2FRwbyu-3" value="sistema" style="shape=umlLifeline;perimeter=lifelinePerimeter;whiteSpace=wrap;html=1;container=1;dropTarget=0;collapsible=0;recursiveResize=0;outlineConnect=0;portConstraint=eastwest;newEdgeStyle={&quot;curved&quot;:0,&quot;rounded&quot;:0};" vertex="1" parent="1">
          <mxGeometry x="380" y="710" width="70" height="192" as="geometry" />
        </mxCell>
        <mxCell id="dSay3HH1dR3Yj2FRwbyu-4" value="" style="html=1;points=[[0,0,0,0,5],[0,1,0,0,-5],[1,0,0,0,5],[1,1,0,0,-5]];perimeter=orthogonalPerimeter;outlineConnect=0;targetShapes=umlLifeline;portConstraint=eastwest;newEdgeStyle={&quot;curved&quot;:0,&quot;rounded&quot;:0};" vertex="1" parent="dSay3HH1dR3Yj2FRwbyu-3">
          <mxGeometry x="30" y="112" width="10" height="80" as="geometry" />
        </mxCell>
        <mxCell id="dSay3HH1dR3Yj2FRwbyu-5" value="" style="html=1;verticalAlign=bottom;startArrow=oval;endArrow=block;startSize=8;curved=0;rounded=0;entryX=0;entryY=0;entryDx=0;entryDy=5;" edge="1" parent="1" target="dSay3HH1dR3Yj2FRwbyu-4">
          <mxGeometry relative="1" as="geometry">
            <mxPoint x="150" y="827" as="sourcePoint" />
          </mxGeometry>
        </mxCell>
        <mxCell id="dSay3HH1dR3Yj2FRwbyu-7" value="usuario" style="shape=umlLifeline;perimeter=lifelinePerimeter;whiteSpace=wrap;html=1;container=1;dropTarget=0;collapsible=0;recursiveResize=0;outlineConnect=0;portConstraint=eastwest;newEdgeStyle={&quot;curved&quot;:0,&quot;rounded&quot;:0};size=40;" vertex="1" parent="1">
          <mxGeometry x="690" y="720" width="70" height="192" as="geometry" />
        </mxCell>
        <mxCell id="dSay3HH1dR3Yj2FRwbyu-8" value="sistema" style="shape=umlLifeline;perimeter=lifelinePerimeter;whiteSpace=wrap;html=1;container=1;dropTarget=0;collapsible=0;recursiveResize=0;outlineConnect=0;portConstraint=eastwest;newEdgeStyle={&quot;curved&quot;:0,&quot;rounded&quot;:0};" vertex="1" parent="1">
          <mxGeometry x="960" y="720" width="70" height="192" as="geometry" />
        </mxCell>
        <mxCell id="dSay3HH1dR3Yj2FRwbyu-9" value="" style="html=1;points=[[0,0,0,0,5],[0,1,0,0,-5],[1,0,0,0,5],[1,1,0,0,-5]];perimeter=orthogonalPerimeter;outlineConnect=0;targetShapes=umlLifeline;portConstraint=eastwest;newEdgeStyle={&quot;curved&quot;:0,&quot;rounded&quot;:0};" vertex="1" parent="dSay3HH1dR3Yj2FRwbyu-8">
          <mxGeometry x="30" y="112" width="10" height="80" as="geometry" />
        </mxCell>
        <mxCell id="dSay3HH1dR3Yj2FRwbyu-10" value="" style="html=1;verticalAlign=bottom;startArrow=oval;endArrow=block;startSize=8;curved=0;rounded=0;entryX=0;entryY=0;entryDx=0;entryDy=5;" edge="1" parent="1" target="dSay3HH1dR3Yj2FRwbyu-9">
          <mxGeometry relative="1" as="geometry">
            <mxPoint x="730" y="837" as="sourcePoint" />
          </mxGeometry>
        </mxCell>
      </root>
    </mxGraphModel>
  </diagram>
</mxfile>
